<svg xmlns="http://www.w3.org/2000/svg" width="10" height="11" viewBox="0 0 10 11"><path fill="#a08253" d="M5 6.92a3.16 3.16 0 0 1-3.05-2.4A1.86 1.86 0 0 1 .27 2.67V1.6c0-.14.12-.26.27-.26h1.31v-.8c0-.15.12-.27.26-.27h5.78c.14 0 .26.12.26.27v.8h1.31c.15 0 .27.12.27.26v1.07c0 .96-.74 1.77-1.68 1.85A3.16 3.16 0 0 1 5 6.92zM1.85 3.81V1.87H.8v.8c0 .64.46 1.19 1.06 1.3v-.16zm6.3 0v.17c.6-.12 1.05-.67 1.05-1.31v-.8H8.15zM5 6.39a2.65 2.65 0 0 0 2.63-2.66V.8H2.37v2.93A2.65 2.65 0 0 0 5 6.39zM2 11v-1h1.16v-.22c0-.55.47-1 1.05-1h1.58c.58 0 1.05.45 1.05 1V10H8v1zm4.31-1.22c0-.26-.23-.47-.52-.47H4.21c-.29 0-.52.21-.52.47V10h2.62z"/></svg>