<svg xmlns="http://www.w3.org/2000/svg" width="37" height="30" viewBox="0 0 37 30"><path fill="#a4875a" d="M34.5 2.01c.55 0 .86-.54.86 0v.05h-.02L19 13.58 1.65 2.14a4.46 4.46 0 0 1-.08-.08v-.04c0-.56.95-.5 1.5-.5h31.29zm.86 24c0 .56.05 1.5-.5 1.5H3.07c-.55 0-1.5-.94-1.5-1.5V3.69l16.77 11.19a1 1 0 0 0 1.31 0l15.7-11.09zM3.5.02C2.28.01.97.47.35 1.37a.37.37 0 0 0-.1.08 1 1 0 0 0-.24.82L0 2.51v23c0 1.66 1.84 3.5 3.5 3.5h31c1.66 0 2.5-1.84 2.5-3.5v-23-.27a1 1 0 0 0-.08-.51C36.68.59 35.87 0 34.5 0z"/></svg>