<svg xmlns="http://www.w3.org/2000/svg" width="14" height="15" viewBox="0 0 14 15"><path fill="#8d7249" d="M2.59 1.8l.03.01L4.3 4.35a.6.6 0 0 1-.08.26c-.08.15-.3.56-.64 1.13l-.25.45.3.43c.22.31.74 1 1.78 2.03a16.32 16.32 0 0 0 2.04 1.8l.43.3.44-.26 1.14-.64a.58.58 0 0 1 .25-.08h.01l2.55 1.69c0 .03 0 .1-.06.2a5.94 5.94 0 0 1-1.54 1.56C9.15 13.15 7 11.81 4.63 9.44 2.26 7.06.92 4.92.85 3.4c.1-.29.85-1.02 1.56-1.54a.32.32 0 0 1 .17-.05c.07 0 0 0 0 0zm-.65-.6C1.92 1.2.01 2.6.04 3.39.1 5.6 2.25 8.2 4.05 10c1.8 1.8 4.4 3.96 6.63 4.03h.02c.78 0 2.15-1.9 2.16-1.91.36-.52.23-1.08-.1-1.31-.2-.14-2.38-1.6-2.64-1.76a.79.79 0 0 0-.42-.1c-.2 0-.42.06-.63.17l-1.16.65c-.27-.2-.92-.69-1.93-1.7-1-1-1.5-1.66-1.7-1.93l.65-1.16c.2-.4.23-.79.06-1.05L3.25 1.29a.8.8 0 0 0-.66-.3c-.22 0-.45.07-.65.2zm6.23 4.09a.4.4 0 0 0 .58.57l3.5-3.48-.01 1.98c0 .16.12.3.29.3h.2c.17 0 .3-.1.31-.27V1.46v-.01l.01-.15c0-.08-.01-.16-.07-.21a.28.28 0 0 0-.2-.08h-.15-.01L9.7 1c-.17 0-.3.14-.3.3v.21c.02.2.17.31.34.3l1.92.01z"/></svg>